<svg width="11412" height="417" viewBox="0 0 11412 417" class="keymap" xmlns="http://www.w3.org/2000/svg" xmlns:xlink="http://www.w3.org/1999/xlink">
<style>/* Clean minimal font */
.keymap {
  font-family: "SF Pro Text", Inter, system-ui, -apple-system, sans-serif;
  font-weight: 400;
  background: #ffffff;
}

/* Minimal key style */
rect.key {
  fill: #f8fafc;
  stroke: #e2e8f0;
  stroke-width: 1;
  rx: 6;
}

/* Clean text styling */
text {
  fill: #0f172a;
}

/* Main tap text */
text.tap {
  font-size: 13px;
  font-weight: 500;
  fill: #0f172a;
}

/* Hold/mod text - smaller and blue */
text.hold {
  font-size: 10px;
  font-weight: 400;
  fill: #3b82f6;
}

/* Secondary functions - purple */
text.shifted {
  font-size: 10px;
  fill: #7c3aed;
}

/* Layer labels - clean headers */
text.label {
  font-size: 16px;
  font-weight: 600;
  fill: #0f172a;
}

/* Layer activators - green */
.layer-activator {
  fill: #059669;
  font-weight: 500;
  text-decoration: none;
}

/* Held keys - subtle yellow */
rect.held {
  fill: #fef3c7;
  stroke: #fbbf24;
  stroke-width: 2;
}

/* Combos - subtle blue */
rect.combo {
  fill: #dbeafe;
  stroke: #3b82f6;
  stroke-width: 1;
}

.combo text {
  font-size: 10px;
  fill: #1e40af;
}

/* Ghost/transparent keys */
rect.ghost {
  stroke-dasharray: 3, 2;
  stroke-width: 1;
  opacity: 0.5;
}

.trans {
  opacity: 0.3;
}

/* Multi-line text spacing */
text.key tspan {
  font-size: 10px;
}

/* Combo dendrons */
path.combo {
  stroke: #cbd5e1;
  stroke-width: 1;
}

/* Footer text */
text.footer {
  font-size: 11px;
  fill: #64748b;
}
</style>
<g transform="translate(30, 0)" class="layer-Base">
<text x="0" y="28" class="label" id="Base">Base</text>
<g transform="translate(0, 56)">
<g transform="translate(27, 54)" class="key keypos-0">
<rect rx="6" ry="6" x="-25" y="-25" width="50" height="50" class="key"/>
<text x="0" y="0" class="key tap">ESC</text>
<text x="0" y="-23" class="key shifted">`</text>
</g>
<g transform="translate(81, 47)" class="key keypos-1">
<rect rx="6" ry="6" x="-25" y="-25" width="50" height="50" class="key"/>
<text x="0" y="0" class="key tap">1</text>
</g>
<g transform="translate(135, 34)" class="key keypos-2">
<rect rx="6" ry="6" x="-25" y="-25" width="50" height="50" class="key"/>
<text x="0" y="0" class="key tap">2</text>
</g>
<g transform="translate(189, 27)" class="key keypos-3">
<rect rx="6" ry="6" x="-25" y="-25" width="50" height="50" class="key"/>
<text x="0" y="0" class="key tap">3</text>
</g>
<g transform="translate(243, 34)" class="key keypos-4">
<rect rx="6" ry="6" x="-25" y="-25" width="50" height="50" class="key"/>
<text x="0" y="0" class="key tap">4</text>
</g>
<g transform="translate(297, 40)" class="key keypos-5">
<rect rx="6" ry="6" x="-25" y="-25" width="50" height="50" class="key"/>
<text x="0" y="0" class="key tap">5</text>
</g>
<g transform="translate(594, 40)" class="key keypos-6">
<rect rx="6" ry="6" x="-25" y="-25" width="50" height="50" class="key"/>
<text x="0" y="0" class="key tap">6</text>
</g>
<g transform="translate(648, 34)" class="key keypos-7">
<rect rx="6" ry="6" x="-25" y="-25" width="50" height="50" class="key"/>
<text x="0" y="0" class="key tap">7</text>
</g>
<g transform="translate(702, 27)" class="key keypos-8">
<rect rx="6" ry="6" x="-25" y="-25" width="50" height="50" class="key"/>
<text x="0" y="0" class="key tap">8</text>
</g>
<g transform="translate(756, 34)" class="key keypos-9">
<rect rx="6" ry="6" x="-25" y="-25" width="50" height="50" class="key"/>
<text x="0" y="0" class="key tap">9</text>
</g>
<g transform="translate(810, 47)" class="key keypos-10">
<rect rx="6" ry="6" x="-25" y="-25" width="50" height="50" class="key"/>
<text x="0" y="0" class="key tap">0</text>
</g>
<g transform="translate(864, 54)" class="key trans keypos-11">
<rect rx="6" ry="6" x="-25" y="-25" width="50" height="50" class="key trans"/>
<text x="0" y="0" class="key trans tap">▽</text>
</g>
<g transform="translate(27, 108)" class="key keypos-12">
<rect rx="6" ry="6" x="-25" y="-25" width="50" height="50" class="key"/>
<text x="0" y="0" class="key tap">⇥</text>
</g>
<g transform="translate(81, 101)" class="key keypos-13">
<rect rx="6" ry="6" x="-25" y="-25" width="50" height="50" class="key"/>
<text x="0" y="0" class="key tap">Q</text>
</g>
<g transform="translate(135, 88)" class="key keypos-14">
<rect rx="6" ry="6" x="-25" y="-25" width="50" height="50" class="key"/>
<text x="0" y="0" class="key tap">W</text>
</g>
<g transform="translate(189, 81)" class="key keypos-15">
<rect rx="6" ry="6" x="-25" y="-25" width="50" height="50" class="key"/>
<text x="0" y="0" class="key tap">E</text>
</g>
<g transform="translate(243, 88)" class="key keypos-16">
<rect rx="6" ry="6" x="-25" y="-25" width="50" height="50" class="key"/>
<text x="0" y="0" class="key tap">R</text>
</g>
<g transform="translate(297, 94)" class="key keypos-17">
<rect rx="6" ry="6" x="-25" y="-25" width="50" height="50" class="key"/>
<text x="0" y="0" class="key tap">T</text>
</g>
<g transform="translate(594, 94)" class="key keypos-18">
<rect rx="6" ry="6" x="-25" y="-25" width="50" height="50" class="key"/>
<text x="0" y="0" class="key tap">Y</text>
</g>
<g transform="translate(648, 88)" class="key keypos-19">
<rect rx="6" ry="6" x="-25" y="-25" width="50" height="50" class="key"/>
<text x="0" y="0" class="key tap">U</text>
</g>
<g transform="translate(702, 81)" class="key keypos-20">
<rect rx="6" ry="6" x="-25" y="-25" width="50" height="50" class="key"/>
<text x="0" y="0" class="key tap">I</text>
</g>
<g transform="translate(756, 88)" class="key keypos-21">
<rect rx="6" ry="6" x="-25" y="-25" width="50" height="50" class="key"/>
<text x="0" y="0" class="key tap">O</text>
</g>
<g transform="translate(810, 101)" class="key keypos-22">
<rect rx="6" ry="6" x="-25" y="-25" width="50" height="50" class="key"/>
<text x="0" y="0" class="key tap">P</text>
</g>
<g transform="translate(864, 108)" class="key trans keypos-23">
<rect rx="6" ry="6" x="-25" y="-25" width="50" height="50" class="key trans"/>
<text x="0" y="0" class="key trans tap">▽</text>
</g>
<g transform="translate(27, 162)" class="key keypos-24">
<rect rx="6" ry="6" x="-25" y="-25" width="50" height="50" class="key"/>
<text x="0" y="0" class="key tap">SHIFT</text>
</g>
<g transform="translate(81, 155)" class="key keypos-25">
<rect rx="6" ry="6" x="-25" y="-25" width="50" height="50" class="key"/>
<text x="0" y="0" class="key tap">A</text>
</g>
<g transform="translate(135, 142)" class="key keypos-26">
<rect rx="6" ry="6" x="-25" y="-25" width="50" height="50" class="key"/>
<text x="0" y="0" class="key tap">S</text>
</g>
<g transform="translate(189, 135)" class="key keypos-27">
<rect rx="6" ry="6" x="-25" y="-25" width="50" height="50" class="key"/>
<text x="0" y="0" class="key tap">D</text>
</g>
<g transform="translate(243, 142)" class="key keypos-28">
<rect rx="6" ry="6" x="-25" y="-25" width="50" height="50" class="key"/>
<text x="0" y="0" class="key tap">F</text>
</g>
<g transform="translate(297, 148)" class="key keypos-29">
<rect rx="6" ry="6" x="-25" y="-25" width="50" height="50" class="key"/>
<text x="0" y="0" class="key tap">G</text>
</g>
<g transform="translate(594, 148)" class="key keypos-30">
<rect rx="6" ry="6" x="-25" y="-25" width="50" height="50" class="key"/>
<text x="0" y="0" class="key tap">H</text>
</g>
<g transform="translate(648, 142)" class="key keypos-31">
<rect rx="6" ry="6" x="-25" y="-25" width="50" height="50" class="key"/>
<text x="0" y="0" class="key tap">J</text>
</g>
<g transform="translate(702, 135)" class="key keypos-32">
<rect rx="6" ry="6" x="-25" y="-25" width="50" height="50" class="key"/>
<text x="0" y="0" class="key tap">K</text>
</g>
<g transform="translate(756, 142)" class="key keypos-33">
<rect rx="6" ry="6" x="-25" y="-25" width="50" height="50" class="key"/>
<text x="0" y="0" class="key tap">L</text>
</g>
<g transform="translate(810, 155)" class="key keypos-34">
<rect rx="6" ry="6" x="-25" y="-25" width="50" height="50" class="key"/>
<text x="0" y="0" class="key tap">;</text>
</g>
<g transform="translate(864, 162)" class="key keypos-35">
<rect rx="6" ry="6" x="-25" y="-25" width="50" height="50" class="key"/>
<text x="0" y="0" class="key tap">&#x27;</text>
</g>
<g transform="translate(27, 216)" class="key keypos-36">
<rect rx="6" ry="6" x="-25" y="-25" width="50" height="50" class="key"/>
<text x="0" y="0" class="key tap">CTRL</text>
</g>
<g transform="translate(81, 209)" class="key keypos-37">
<rect rx="6" ry="6" x="-25" y="-25" width="50" height="50" class="key"/>
<text x="0" y="0" class="key tap">Z</text>
</g>
<g transform="translate(135, 196)" class="key keypos-38">
<rect rx="6" ry="6" x="-25" y="-25" width="50" height="50" class="key"/>
<text x="0" y="0" class="key tap">X</text>
</g>
<g transform="translate(189, 189)" class="key keypos-39">
<rect rx="6" ry="6" x="-25" y="-25" width="50" height="50" class="key"/>
<text x="0" y="0" class="key tap">C</text>
</g>
<g transform="translate(243, 196)" class="key keypos-40">
<rect rx="6" ry="6" x="-25" y="-25" width="50" height="50" class="key"/>
<text x="0" y="0" class="key tap">V</text>
</g>
<g transform="translate(297, 202)" class="key keypos-41">
<rect rx="6" ry="6" x="-25" y="-25" width="50" height="50" class="key"/>
<text x="0" y="0" class="key tap">B</text>
</g>
<g transform="translate(351, 176)" class="key trans keypos-42">
<rect rx="6" ry="6" x="-25" y="-25" width="50" height="50" class="key trans"/>
<text x="0" y="0" class="key trans tap">▽</text>
</g>
<g transform="translate(540, 176)" class="key trans keypos-43">
<rect rx="6" ry="6" x="-25" y="-25" width="50" height="50" class="key trans"/>
<text x="0" y="0" class="key trans tap">▽</text>
</g>
<g transform="translate(594, 202)" class="key keypos-44">
<rect rx="6" ry="6" x="-25" y="-25" width="50" height="50" class="key"/>
<text x="0" y="0" class="key tap">N</text>
</g>
<g transform="translate(648, 196)" class="key keypos-45">
<rect rx="6" ry="6" x="-25" y="-25" width="50" height="50" class="key"/>
<text x="0" y="0" class="key tap">M</text>
</g>
<g transform="translate(702, 189)" class="key keypos-46">
<rect rx="6" ry="6" x="-25" y="-25" width="50" height="50" class="key"/>
<text x="0" y="0" class="key tap">,</text>
</g>
<g transform="translate(756, 196)" class="key keypos-47">
<rect rx="6" ry="6" x="-25" y="-25" width="50" height="50" class="key"/>
<text x="0" y="0" class="key tap">.</text>
</g>
<g transform="translate(810, 209)" class="key keypos-48">
<rect rx="6" ry="6" x="-25" y="-25" width="50" height="50" class="key"/>
<text x="0" y="0" class="key tap">/</text>
</g>
<g transform="translate(864, 216)" class="key trans keypos-49">
<rect rx="6" ry="6" x="-25" y="-25" width="50" height="50" class="key trans"/>
<text x="0" y="0" class="key trans tap">▽</text>
</g>
<g transform="translate(162, 250)" class="key keypos-50">
<rect rx="6" ry="6" x="-25" y="-25" width="50" height="50" class="key"/>
<text x="0" y="0" class="key tap">ALT</text>
</g>
<g transform="translate(216, 251)" class="key trans keypos-51">
<rect rx="6" ry="6" x="-25" y="-25" width="50" height="50" class="key trans"/>
<text x="0" y="0" class="key trans tap">▽</text>
</g>
<g transform="translate(270, 256)" class="key keypos-52">
<rect rx="6" ry="6" x="-25" y="-25" width="50" height="50" class="key"/>
<text x="0" y="0" class="key tap">ALT</text>
</g>
<g transform="translate(338, 256) rotate(30.0)" class="key keypos-53">
<rect rx="6" ry="6" x="-25" y="-38" width="50" height="77" class="key"/>
<text x="0" y="0" class="key tap">⎵</text>
</g>
<g transform="translate(554, 256) rotate(-30.0)" class="key keypos-54">
<rect rx="6" ry="6" x="-25" y="-38" width="50" height="77" class="key"/>
<text x="0" y="0" class="key tap">⏎</text>
</g>
<g transform="translate(621, 256)" class="key held keypos-55">
<rect rx="6" ry="6" x="-25" y="-25" width="50" height="50" class="key held"/>
<text x="0" y="0" class="key held tap">Lower</text>
</g>
<g transform="translate(675, 251)" class="key trans keypos-56">
<rect rx="6" ry="6" x="-25" y="-25" width="50" height="50" class="key trans"/>
<text x="0" y="0" class="key trans tap">▽</text>
</g>
<g transform="translate(729, 251)" class="key trans keypos-57">
<rect rx="6" ry="6" x="-25" y="-25" width="50" height="50" class="key trans"/>
<text x="0" y="0" class="key trans tap">▽</text>
</g>
<g class="combo toggle combopos-0">
<path d="M446,40 l-130,0" class="combo"/>
<path d="M446,40 l130,0" class="combo"/>
<rect rx="6" ry="6" x="432" y="30" width="26" height="22" class="combo toggle"/>
<text x="446" y="40" class="combo toggle tap">Gaming</text>
</g>
<g class="combo toggle combopos-1">
<path d="M446,94 l-130,0" class="combo"/>
<path d="M446,94 l130,0" class="combo"/>
<rect rx="6" ry="6" x="432" y="84" width="26" height="22" class="combo toggle"/>
<text x="446" y="94" class="combo toggle tap">BT</text>
</g>
<g class="combo combopos-2">
<rect rx="6" ry="6" x="41" y="40" width="26" height="22" class="combo"/>
<text x="54" y="51" class="combo tap">BOOT</text>
</g>
<g class="combo combopos-3">
<rect rx="6" ry="6" x="824" y="40" width="26" height="22" class="combo"/>
<text x="837" y="51" class="combo tap">BOOT</text>
</g>
</g>
</g>
<g transform="translate(981, 0)" class="layer-Farrows">
<text x="0" y="28" class="label" id="Farrows">Farrows</text>
<g transform="translate(0, 56)">
<g transform="translate(27, 54)" class="key trans keypos-0">
<rect rx="6" ry="6" x="-25" y="-25" width="50" height="50" class="key trans"/>
<text x="0" y="0" class="key trans tap">▽</text>
</g>
<g transform="translate(81, 47)" class="key trans keypos-1">
<rect rx="6" ry="6" x="-25" y="-25" width="50" height="50" class="key trans"/>
<text x="0" y="0" class="key trans tap">▽</text>
</g>
<g transform="translate(135, 34)" class="key trans keypos-2">
<rect rx="6" ry="6" x="-25" y="-25" width="50" height="50" class="key trans"/>
<text x="0" y="0" class="key trans tap">▽</text>
</g>
<g transform="translate(189, 27)" class="key trans keypos-3">
<rect rx="6" ry="6" x="-25" y="-25" width="50" height="50" class="key trans"/>
<text x="0" y="0" class="key trans tap">▽</text>
</g>
<g transform="translate(243, 34)" class="key trans keypos-4">
<rect rx="6" ry="6" x="-25" y="-25" width="50" height="50" class="key trans"/>
<text x="0" y="0" class="key trans tap">▽</text>
</g>
<g transform="translate(297, 40)" class="key trans keypos-5">
<rect rx="6" ry="6" x="-25" y="-25" width="50" height="50" class="key trans"/>
<text x="0" y="0" class="key trans tap">▽</text>
</g>
<g transform="translate(594, 40)" class="key trans keypos-6">
<rect rx="6" ry="6" x="-25" y="-25" width="50" height="50" class="key trans"/>
<text x="0" y="0" class="key trans tap">▽</text>
</g>
<g transform="translate(648, 34)" class="key trans keypos-7">
<rect rx="6" ry="6" x="-25" y="-25" width="50" height="50" class="key trans"/>
<text x="0" y="0" class="key trans tap">▽</text>
</g>
<g transform="translate(702, 27)" class="key trans keypos-8">
<rect rx="6" ry="6" x="-25" y="-25" width="50" height="50" class="key trans"/>
<text x="0" y="0" class="key trans tap">▽</text>
</g>
<g transform="translate(756, 34)" class="key trans keypos-9">
<rect rx="6" ry="6" x="-25" y="-25" width="50" height="50" class="key trans"/>
<text x="0" y="0" class="key trans tap">▽</text>
</g>
<g transform="translate(810, 47)" class="key trans keypos-10">
<rect rx="6" ry="6" x="-25" y="-25" width="50" height="50" class="key trans"/>
<text x="0" y="0" class="key trans tap">▽</text>
</g>
<g transform="translate(864, 54)" class="key trans keypos-11">
<rect rx="6" ry="6" x="-25" y="-25" width="50" height="50" class="key trans"/>
<text x="0" y="0" class="key trans tap">▽</text>
</g>
<g transform="translate(27, 108)" class="key trans keypos-12">
<rect rx="6" ry="6" x="-25" y="-25" width="50" height="50" class="key trans"/>
<text x="0" y="0" class="key trans tap">▽</text>
</g>
<g transform="translate(81, 101)" class="key keypos-13">
<rect rx="6" ry="6" x="-25" y="-25" width="50" height="50" class="key"/>
<text x="0" y="0" class="key tap">F1</text>
</g>
<g transform="translate(135, 88)" class="key keypos-14">
<rect rx="6" ry="6" x="-25" y="-25" width="50" height="50" class="key"/>
<text x="0" y="0" class="key tap">F2</text>
</g>
<g transform="translate(189, 81)" class="key keypos-15">
<rect rx="6" ry="6" x="-25" y="-25" width="50" height="50" class="key"/>
<text x="0" y="0" class="key tap">F3</text>
</g>
<g transform="translate(243, 88)" class="key keypos-16">
<rect rx="6" ry="6" x="-25" y="-25" width="50" height="50" class="key"/>
<text x="0" y="0" class="key tap">F4</text>
</g>
<g transform="translate(297, 94)" class="key keypos-17">
<rect rx="6" ry="6" x="-25" y="-25" width="50" height="50" class="key"/>
<text x="0" y="0" class="key tap">F5</text>
</g>
<g transform="translate(594, 94)" class="key keypos-18">
<rect rx="6" ry="6" x="-25" y="-25" width="50" height="50" class="key"/>
<text x="0" y="0" class="key tap">PRNT</text>
</g>
<g transform="translate(648, 88)" class="key keypos-19">
<rect rx="6" ry="6" x="-25" y="-25" width="50" height="50" class="key"/>
<text x="0" y="0" class="key tap">⇟</text>
</g>
<g transform="translate(702, 81)" class="key keypos-20">
<rect rx="6" ry="6" x="-25" y="-25" width="50" height="50" class="key"/>
<text x="0" y="0" class="key tap">⇞</text>
</g>
<g transform="translate(756, 88)" class="key keypos-21">
<rect rx="6" ry="6" x="-25" y="-25" width="50" height="50" class="key"/>
<text x="0" y="0" class="key tap">INS</text>
</g>
<g transform="translate(810, 101)" class="key trans keypos-22">
<rect rx="6" ry="6" x="-25" y="-25" width="50" height="50" class="key trans"/>
<text x="0" y="0" class="key trans tap">▽</text>
</g>
<g transform="translate(864, 108)" class="key trans keypos-23">
<rect rx="6" ry="6" x="-25" y="-25" width="50" height="50" class="key trans"/>
<text x="0" y="0" class="key trans tap">▽</text>
</g>
<g transform="translate(27, 162)" class="key trans keypos-24">
<rect rx="6" ry="6" x="-25" y="-25" width="50" height="50" class="key trans"/>
<text x="0" y="0" class="key trans tap">▽</text>
</g>
<g transform="translate(81, 155)" class="key keypos-25">
<rect rx="6" ry="6" x="-25" y="-25" width="50" height="50" class="key"/>
<text x="0" y="0" class="key tap">F6</text>
<text x="0" y="23" class="key hold">GUI</text>
</g>
<g transform="translate(135, 142)" class="key keypos-26">
<rect rx="6" ry="6" x="-25" y="-25" width="50" height="50" class="key"/>
<text x="0" y="0" class="key tap">F7</text>
<text x="0" y="23" class="key hold">ALT</text>
</g>
<g transform="translate(189, 135)" class="key keypos-27">
<rect rx="6" ry="6" x="-25" y="-25" width="50" height="50" class="key"/>
<text x="0" y="0" class="key tap">F8</text>
<text x="0" y="23" class="key hold">SFT</text>
</g>
<g transform="translate(243, 142)" class="key keypos-28">
<rect rx="6" ry="6" x="-25" y="-25" width="50" height="50" class="key"/>
<text x="0" y="0" class="key tap">F9</text>
<text x="0" y="23" class="key hold">CTL</text>
</g>
<g transform="translate(297, 148)" class="key keypos-29">
<rect rx="6" ry="6" x="-25" y="-25" width="50" height="50" class="key"/>
<text x="0" y="0" class="key tap">F10</text>
</g>
<g transform="translate(594, 148)" class="key keypos-30">
<rect rx="6" ry="6" x="-25" y="-25" width="50" height="50" class="key"/>
<text x="0" y="0" class="key tap">←</text>
</g>
<g transform="translate(648, 142)" class="key keypos-31">
<rect rx="6" ry="6" x="-25" y="-25" width="50" height="50" class="key"/>
<text x="0" y="0" class="key tap">↓</text>
</g>
<g transform="translate(702, 135)" class="key keypos-32">
<rect rx="6" ry="6" x="-25" y="-25" width="50" height="50" class="key"/>
<text x="0" y="0" class="key tap">↑</text>
</g>
<g transform="translate(756, 142)" class="key keypos-33">
<rect rx="6" ry="6" x="-25" y="-25" width="50" height="50" class="key"/>
<text x="0" y="0" class="key tap">→</text>
</g>
<g transform="translate(810, 155)" class="key trans keypos-34">
<rect rx="6" ry="6" x="-25" y="-25" width="50" height="50" class="key trans"/>
<text x="0" y="0" class="key trans tap">▽</text>
</g>
<g transform="translate(864, 162)" class="key trans keypos-35">
<rect rx="6" ry="6" x="-25" y="-25" width="50" height="50" class="key trans"/>
<text x="0" y="0" class="key trans tap">▽</text>
</g>
<g transform="translate(27, 216)" class="key trans keypos-36">
<rect rx="6" ry="6" x="-25" y="-25" width="50" height="50" class="key trans"/>
<text x="0" y="0" class="key trans tap">▽</text>
</g>
<g transform="translate(81, 209)" class="key trans keypos-37">
<rect rx="6" ry="6" x="-25" y="-25" width="50" height="50" class="key trans"/>
<text x="0" y="0" class="key trans tap">▽</text>
</g>
<g transform="translate(135, 196)" class="key trans keypos-38">
<rect rx="6" ry="6" x="-25" y="-25" width="50" height="50" class="key trans"/>
<text x="0" y="0" class="key trans tap">▽</text>
</g>
<g transform="translate(189, 189)" class="key trans keypos-39">
<rect rx="6" ry="6" x="-25" y="-25" width="50" height="50" class="key trans"/>
<text x="0" y="0" class="key trans tap">▽</text>
</g>
<g transform="translate(243, 196)" class="key keypos-40">
<rect rx="6" ry="6" x="-25" y="-25" width="50" height="50" class="key"/>
<text x="0" y="0" class="key tap">F11</text>
</g>
<g transform="translate(297, 202)" class="key keypos-41">
<rect rx="6" ry="6" x="-25" y="-25" width="50" height="50" class="key"/>
<text x="0" y="0" class="key tap">F12</text>
</g>
<g transform="translate(351, 176)" class="key trans keypos-42">
<rect rx="6" ry="6" x="-25" y="-25" width="50" height="50" class="key trans"/>
<text x="0" y="0" class="key trans tap">▽</text>
</g>
<g transform="translate(540, 176)" class="key trans keypos-43">
<rect rx="6" ry="6" x="-25" y="-25" width="50" height="50" class="key trans"/>
<text x="0" y="0" class="key trans tap">▽</text>
</g>
<g transform="translate(594, 202)" class="key trans keypos-44">
<rect rx="6" ry="6" x="-25" y="-25" width="50" height="50" class="key trans"/>
<text x="0" y="0" class="key trans tap">▽</text>
</g>
<g transform="translate(648, 196)" class="key keypos-45">
<rect rx="6" ry="6" x="-25" y="-25" width="50" height="50" class="key"/>
<text x="0" y="0" class="key tap">⇲</text>
</g>
<g transform="translate(702, 189)" class="key keypos-46">
<rect rx="6" ry="6" x="-25" y="-25" width="50" height="50" class="key"/>
<text x="0" y="0" class="key tap">⇱</text>
</g>
<g transform="translate(756, 196)" class="key trans keypos-47">
<rect rx="6" ry="6" x="-25" y="-25" width="50" height="50" class="key trans"/>
<text x="0" y="0" class="key trans tap">▽</text>
</g>
<g transform="translate(810, 209)" class="key trans keypos-48">
<rect rx="6" ry="6" x="-25" y="-25" width="50" height="50" class="key trans"/>
<text x="0" y="0" class="key trans tap">▽</text>
</g>
<g transform="translate(864, 216)" class="key trans keypos-49">
<rect rx="6" ry="6" x="-25" y="-25" width="50" height="50" class="key trans"/>
<text x="0" y="0" class="key trans tap">▽</text>
</g>
<g transform="translate(162, 250)" class="key trans keypos-50">
<rect rx="6" ry="6" x="-25" y="-25" width="50" height="50" class="key trans"/>
<text x="0" y="0" class="key trans tap">▽</text>
</g>
<g transform="translate(216, 251)" class="key trans keypos-51">
<rect rx="6" ry="6" x="-25" y="-25" width="50" height="50" class="key trans"/>
<text x="0" y="0" class="key trans tap">▽</text>
</g>
<g transform="translate(270, 256)" class="key trans keypos-52">
<rect rx="6" ry="6" x="-25" y="-25" width="50" height="50" class="key trans"/>
<text x="0" y="0" class="key trans tap">▽</text>
</g>
<g transform="translate(338, 256) rotate(30.0)" class="key trans keypos-53">
<rect rx="6" ry="6" x="-25" y="-38" width="50" height="77" class="key trans"/>
<text x="0" y="0" class="key trans tap">▽</text>
</g>
<g transform="translate(554, 256) rotate(-30.0)" class="key trans keypos-54">
<rect rx="6" ry="6" x="-25" y="-38" width="50" height="77" class="key trans"/>
<text x="0" y="0" class="key trans tap">▽</text>
</g>
<g transform="translate(621, 256)" class="key trans keypos-55">
<rect rx="6" ry="6" x="-25" y="-25" width="50" height="50" class="key trans"/>
<text x="0" y="0" class="key trans tap">▽</text>
</g>
<g transform="translate(675, 251)" class="key trans keypos-56">
<rect rx="6" ry="6" x="-25" y="-25" width="50" height="50" class="key trans"/>
<text x="0" y="0" class="key trans tap">▽</text>
</g>
<g transform="translate(729, 251)" class="key trans keypos-57">
<rect rx="6" ry="6" x="-25" y="-25" width="50" height="50" class="key trans"/>
<text x="0" y="0" class="key trans tap">▽</text>
</g>
<g class="combo toggle combopos-0">
<path d="M446,40 l-130,0" class="combo"/>
<path d="M446,40 l130,0" class="combo"/>
<rect rx="6" ry="6" x="432" y="30" width="26" height="22" class="combo toggle"/>
<text x="446" y="40" class="combo toggle tap">Gaming</text>
</g>
<g class="combo toggle combopos-1">
<path d="M446,94 l-130,0" class="combo"/>
<path d="M446,94 l130,0" class="combo"/>
<rect rx="6" ry="6" x="432" y="84" width="26" height="22" class="combo toggle"/>
<text x="446" y="94" class="combo toggle tap">BT</text>
</g>
<g class="combo combopos-2">
<rect rx="6" ry="6" x="41" y="40" width="26" height="22" class="combo"/>
<text x="54" y="51" class="combo tap">BOOT</text>
</g>
<g class="combo combopos-3">
<rect rx="6" ry="6" x="824" y="40" width="26" height="22" class="combo"/>
<text x="837" y="51" class="combo tap">BOOT</text>
</g>
</g>
</g>
<g transform="translate(1932, 0)" class="layer-sumbols">
<text x="0" y="28" class="label" id="sumbols">sumbols</text>
<g transform="translate(0, 56)">
<g transform="translate(27, 54)" class="key trans keypos-0">
<rect rx="6" ry="6" x="-25" y="-25" width="50" height="50" class="key trans"/>
<text x="0" y="0" class="key trans tap">▽</text>
</g>
<g transform="translate(81, 47)" class="key trans keypos-1">
<rect rx="6" ry="6" x="-25" y="-25" width="50" height="50" class="key trans"/>
<text x="0" y="0" class="key trans tap">▽</text>
</g>
<g transform="translate(135, 34)" class="key trans keypos-2">
<rect rx="6" ry="6" x="-25" y="-25" width="50" height="50" class="key trans"/>
<text x="0" y="0" class="key trans tap">▽</text>
</g>
<g transform="translate(189, 27)" class="key trans keypos-3">
<rect rx="6" ry="6" x="-25" y="-25" width="50" height="50" class="key trans"/>
<text x="0" y="0" class="key trans tap">▽</text>
</g>
<g transform="translate(243, 34)" class="key trans keypos-4">
<rect rx="6" ry="6" x="-25" y="-25" width="50" height="50" class="key trans"/>
<text x="0" y="0" class="key trans tap">▽</text>
</g>
<g transform="translate(297, 40)" class="key trans keypos-5">
<rect rx="6" ry="6" x="-25" y="-25" width="50" height="50" class="key trans"/>
<text x="0" y="0" class="key trans tap">▽</text>
</g>
<g transform="translate(594, 40)" class="key trans keypos-6">
<rect rx="6" ry="6" x="-25" y="-25" width="50" height="50" class="key trans"/>
<text x="0" y="0" class="key trans tap">▽</text>
</g>
<g transform="translate(648, 34)" class="key trans keypos-7">
<rect rx="6" ry="6" x="-25" y="-25" width="50" height="50" class="key trans"/>
<text x="0" y="0" class="key trans tap">▽</text>
</g>
<g transform="translate(702, 27)" class="key trans keypos-8">
<rect rx="6" ry="6" x="-25" y="-25" width="50" height="50" class="key trans"/>
<text x="0" y="0" class="key trans tap">▽</text>
</g>
<g transform="translate(756, 34)" class="key trans keypos-9">
<rect rx="6" ry="6" x="-25" y="-25" width="50" height="50" class="key trans"/>
<text x="0" y="0" class="key trans tap">▽</text>
</g>
<g transform="translate(810, 47)" class="key trans keypos-10">
<rect rx="6" ry="6" x="-25" y="-25" width="50" height="50" class="key trans"/>
<text x="0" y="0" class="key trans tap">▽</text>
</g>
<g transform="translate(864, 54)" class="key trans keypos-11">
<rect rx="6" ry="6" x="-25" y="-25" width="50" height="50" class="key trans"/>
<text x="0" y="0" class="key trans tap">▽</text>
</g>
<g transform="translate(27, 108)" class="key trans keypos-12">
<rect rx="6" ry="6" x="-25" y="-25" width="50" height="50" class="key trans"/>
<text x="0" y="0" class="key trans tap">▽</text>
</g>
<g transform="translate(81, 101)" class="key trans keypos-13">
<rect rx="6" ry="6" x="-25" y="-25" width="50" height="50" class="key trans"/>
<text x="0" y="0" class="key trans tap">▽</text>
</g>
<g transform="translate(135, 88)" class="key trans keypos-14">
<rect rx="6" ry="6" x="-25" y="-25" width="50" height="50" class="key trans"/>
<text x="0" y="0" class="key trans tap">▽</text>
</g>
<g transform="translate(189, 81)" class="key trans keypos-15">
<rect rx="6" ry="6" x="-25" y="-25" width="50" height="50" class="key trans"/>
<text x="0" y="0" class="key trans tap">▽</text>
</g>
<g transform="translate(243, 88)" class="key trans keypos-16">
<rect rx="6" ry="6" x="-25" y="-25" width="50" height="50" class="key trans"/>
<text x="0" y="0" class="key trans tap">▽</text>
</g>
<g transform="translate(297, 94)" class="key trans keypos-17">
<rect rx="6" ry="6" x="-25" y="-25" width="50" height="50" class="key trans"/>
<text x="0" y="0" class="key trans tap">▽</text>
</g>
<g transform="translate(594, 94)" class="key keypos-18">
<rect rx="6" ry="6" x="-25" y="-25" width="50" height="50" class="key"/>
<text x="0" y="0" class="key tap">-</text>
</g>
<g transform="translate(648, 88)" class="key keypos-19">
<rect rx="6" ry="6" x="-25" y="-25" width="50" height="50" class="key"/>
<text x="0" y="0" class="key tap">+</text>
</g>
<g transform="translate(702, 81)" class="key keypos-20">
<rect rx="6" ry="6" x="-25" y="-25" width="50" height="50" class="key"/>
<text x="0" y="0" class="key tap">=</text>
</g>
<g transform="translate(756, 88)" class="key keypos-21">
<rect rx="6" ry="6" x="-25" y="-25" width="50" height="50" class="key"/>
<text x="0" y="0" class="key tap">_</text>
</g>
<g transform="translate(810, 101)" class="key trans keypos-22">
<rect rx="6" ry="6" x="-25" y="-25" width="50" height="50" class="key trans"/>
<text x="0" y="0" class="key trans tap">▽</text>
</g>
<g transform="translate(864, 108)" class="key keypos-23">
<rect rx="6" ry="6" x="-25" y="-25" width="50" height="50" class="key"/>
<text x="0" y="0" class="key tap">|</text>
</g>
<g transform="translate(27, 162)" class="key trans keypos-24">
<rect rx="6" ry="6" x="-25" y="-25" width="50" height="50" class="key trans"/>
<text x="0" y="0" class="key trans tap">▽</text>
</g>
<g transform="translate(81, 155)" class="key keypos-25">
<rect rx="6" ry="6" x="-25" y="-25" width="50" height="50" class="key"/>
<text x="0" y="0" class="key tap">&lt;</text>
<text x="0" y="23" class="key hold">GUI</text>
</g>
<g transform="translate(135, 142)" class="key keypos-26">
<rect rx="6" ry="6" x="-25" y="-25" width="50" height="50" class="key"/>
<text x="0" y="0" class="key tap">&gt;</text>
<text x="0" y="23" class="key hold">ALT</text>
</g>
<g transform="translate(189, 135)" class="key keypos-27">
<rect rx="6" ry="6" x="-25" y="-25" width="50" height="50" class="key"/>
<text x="0" y="0" class="key tap">{</text>
<text x="0" y="23" class="key hold">SFT</text>
</g>
<g transform="translate(243, 142)" class="key keypos-28">
<rect rx="6" ry="6" x="-25" y="-25" width="50" height="50" class="key"/>
<text x="0" y="0" class="key tap">}</text>
<text x="0" y="23" class="key hold">CTL</text>
</g>
<g transform="translate(297, 148)" class="key trans keypos-29">
<rect rx="6" ry="6" x="-25" y="-25" width="50" height="50" class="key trans"/>
<text x="0" y="0" class="key trans tap">▽</text>
</g>
<g transform="translate(594, 148)" class="key keypos-30">
<rect rx="6" ry="6" x="-25" y="-25" width="50" height="50" class="key"/>
<text x="0" y="0" class="key tap">&quot;</text>
</g>
<g transform="translate(648, 142)" class="key keypos-31">
<rect rx="6" ry="6" x="-25" y="-25" width="50" height="50" class="key"/>
<text x="0" y="0" class="key tap">Sft+(</text>
</g>
<g transform="translate(702, 135)" class="key keypos-32">
<rect rx="6" ry="6" x="-25" y="-25" width="50" height="50" class="key"/>
<text x="0" y="0" class="key tap">Sft+)</text>
</g>
<g transform="translate(756, 142)" class="key keypos-33">
<rect rx="6" ry="6" x="-25" y="-25" width="50" height="50" class="key"/>
<text x="0" y="0" class="key tap">[</text>
</g>
<g transform="translate(810, 155)" class="key keypos-34">
<rect rx="6" ry="6" x="-25" y="-25" width="50" height="50" class="key"/>
<text x="0" y="0" class="key tap">]</text>
</g>
<g transform="translate(864, 162)" class="key trans keypos-35">
<rect rx="6" ry="6" x="-25" y="-25" width="50" height="50" class="key trans"/>
<text x="0" y="0" class="key trans tap">▽</text>
</g>
<g transform="translate(27, 216)" class="key trans keypos-36">
<rect rx="6" ry="6" x="-25" y="-25" width="50" height="50" class="key trans"/>
<text x="0" y="0" class="key trans tap">▽</text>
</g>
<g transform="translate(81, 209)" class="key trans keypos-37">
<rect rx="6" ry="6" x="-25" y="-25" width="50" height="50" class="key trans"/>
<text x="0" y="0" class="key trans tap">▽</text>
</g>
<g transform="translate(135, 196)" class="key trans keypos-38">
<rect rx="6" ry="6" x="-25" y="-25" width="50" height="50" class="key trans"/>
<text x="0" y="0" class="key trans tap">▽</text>
</g>
<g transform="translate(189, 189)" class="key trans keypos-39">
<rect rx="6" ry="6" x="-25" y="-25" width="50" height="50" class="key trans"/>
<text x="0" y="0" class="key trans tap">▽</text>
</g>
<g transform="translate(243, 196)" class="key trans keypos-40">
<rect rx="6" ry="6" x="-25" y="-25" width="50" height="50" class="key trans"/>
<text x="0" y="0" class="key trans tap">▽</text>
</g>
<g transform="translate(297, 202)" class="key trans keypos-41">
<rect rx="6" ry="6" x="-25" y="-25" width="50" height="50" class="key trans"/>
<text x="0" y="0" class="key trans tap">▽</text>
</g>
<g transform="translate(351, 176)" class="key trans keypos-42">
<rect rx="6" ry="6" x="-25" y="-25" width="50" height="50" class="key trans"/>
<text x="0" y="0" class="key trans tap">▽</text>
</g>
<g transform="translate(540, 176)" class="key trans keypos-43">
<rect rx="6" ry="6" x="-25" y="-25" width="50" height="50" class="key trans"/>
<text x="0" y="0" class="key trans tap">▽</text>
</g>
<g transform="translate(594, 202)" class="key keypos-44">
<rect rx="6" ry="6" x="-25" y="-25" width="50" height="50" class="key"/>
<text x="0" y="0" class="key tap">$</text>
</g>
<g transform="translate(648, 196)" class="key trans keypos-45">
<rect rx="6" ry="6" x="-25" y="-25" width="50" height="50" class="key trans"/>
<text x="0" y="0" class="key trans tap">▽</text>
</g>
<g transform="translate(702, 189)" class="key trans keypos-46">
<rect rx="6" ry="6" x="-25" y="-25" width="50" height="50" class="key trans"/>
<text x="0" y="0" class="key trans tap">▽</text>
</g>
<g transform="translate(756, 196)" class="key trans keypos-47">
<rect rx="6" ry="6" x="-25" y="-25" width="50" height="50" class="key trans"/>
<text x="0" y="0" class="key trans tap">▽</text>
</g>
<g transform="translate(810, 209)" class="key keypos-48">
<rect rx="6" ry="6" x="-25" y="-25" width="50" height="50" class="key"/>
<text x="0" y="0" class="key tap">\</text>
</g>
<g transform="translate(864, 216)" class="key trans keypos-49">
<rect rx="6" ry="6" x="-25" y="-25" width="50" height="50" class="key trans"/>
<text x="0" y="0" class="key trans tap">▽</text>
</g>
<g transform="translate(162, 250)" class="key trans keypos-50">
<rect rx="6" ry="6" x="-25" y="-25" width="50" height="50" class="key trans"/>
<text x="0" y="0" class="key trans tap">▽</text>
</g>
<g transform="translate(216, 251)" class="key trans keypos-51">
<rect rx="6" ry="6" x="-25" y="-25" width="50" height="50" class="key trans"/>
<text x="0" y="0" class="key trans tap">▽</text>
</g>
<g transform="translate(270, 256)" class="key trans keypos-52">
<rect rx="6" ry="6" x="-25" y="-25" width="50" height="50" class="key trans"/>
<text x="0" y="0" class="key trans tap">▽</text>
</g>
<g transform="translate(338, 256) rotate(30.0)" class="key trans keypos-53">
<rect rx="6" ry="6" x="-25" y="-38" width="50" height="77" class="key trans"/>
<text x="0" y="0" class="key trans tap">▽</text>
</g>
<g transform="translate(554, 256) rotate(-30.0)" class="key trans keypos-54">
<rect rx="6" ry="6" x="-25" y="-38" width="50" height="77" class="key trans"/>
<text x="0" y="0" class="key trans tap">▽</text>
</g>
<g transform="translate(621, 256)" class="key trans keypos-55">
<rect rx="6" ry="6" x="-25" y="-25" width="50" height="50" class="key trans"/>
<text x="0" y="0" class="key trans tap">▽</text>
</g>
<g transform="translate(675, 251)" class="key trans keypos-56">
<rect rx="6" ry="6" x="-25" y="-25" width="50" height="50" class="key trans"/>
<text x="0" y="0" class="key trans tap">▽</text>
</g>
<g transform="translate(729, 251)" class="key trans keypos-57">
<rect rx="6" ry="6" x="-25" y="-25" width="50" height="50" class="key trans"/>
<text x="0" y="0" class="key trans tap">▽</text>
</g>
<g class="combo toggle combopos-0">
<path d="M446,40 l-130,0" class="combo"/>
<path d="M446,40 l130,0" class="combo"/>
<rect rx="6" ry="6" x="432" y="30" width="26" height="22" class="combo toggle"/>
<text x="446" y="40" class="combo toggle tap">Gaming</text>
</g>
<g class="combo toggle combopos-1">
<path d="M446,94 l-130,0" class="combo"/>
<path d="M446,94 l130,0" class="combo"/>
<rect rx="6" ry="6" x="432" y="84" width="26" height="22" class="combo toggle"/>
<text x="446" y="94" class="combo toggle tap">BT</text>
</g>
<g class="combo combopos-2">
<rect rx="6" ry="6" x="41" y="40" width="26" height="22" class="combo"/>
<text x="54" y="51" class="combo tap">BOOT</text>
</g>
<g class="combo combopos-3">
<rect rx="6" ry="6" x="824" y="40" width="26" height="22" class="combo"/>
<text x="837" y="51" class="combo tap">BOOT</text>
</g>
</g>
</g>
<g transform="translate(2883, 0)" class="layer-bluetooth">
<text x="0" y="28" class="label" id="bluetooth">bluetooth</text>
<g transform="translate(0, 56)">
<g transform="translate(27, 54)" class="key keypos-0">
<rect rx="6" ry="6" x="-25" y="-25" width="50" height="50" class="key"/>
</g>
<g transform="translate(81, 47)" class="key keypos-1">
<rect rx="6" ry="6" x="-25" y="-25" width="50" height="50" class="key"/>
<text x="0" y="0" class="key tap">BT0</text>
</g>
<g transform="translate(135, 34)" class="key keypos-2">
<rect rx="6" ry="6" x="-25" y="-25" width="50" height="50" class="key"/>
<text x="0" y="0" class="key tap">BT1</text>
</g>
<g transform="translate(189, 27)" class="key keypos-3">
<rect rx="6" ry="6" x="-25" y="-25" width="50" height="50" class="key"/>
<text x="0" y="0" class="key tap">BT2</text>
</g>
<g transform="translate(243, 34)" class="key keypos-4">
<rect rx="6" ry="6" x="-25" y="-25" width="50" height="50" class="key"/>
<text x="0" y="0" class="key tap">BT3</text>
</g>
<g transform="translate(297, 40)" class="key keypos-5">
<rect rx="6" ry="6" x="-25" y="-25" width="50" height="50" class="key"/>
<text x="0" y="0" class="key tap">BT4</text>
</g>
<g transform="translate(594, 40)" class="key keypos-6">
<rect rx="6" ry="6" x="-25" y="-25" width="50" height="50" class="key"/>
</g>
<g transform="translate(648, 34)" class="key keypos-7">
<rect rx="6" ry="6" x="-25" y="-25" width="50" height="50" class="key"/>
</g>
<g transform="translate(702, 27)" class="key keypos-8">
<rect rx="6" ry="6" x="-25" y="-25" width="50" height="50" class="key"/>
</g>
<g transform="translate(756, 34)" class="key keypos-9">
<rect rx="6" ry="6" x="-25" y="-25" width="50" height="50" class="key"/>
</g>
<g transform="translate(810, 47)" class="key keypos-10">
<rect rx="6" ry="6" x="-25" y="-25" width="50" height="50" class="key"/>
</g>
<g transform="translate(864, 54)" class="key keypos-11">
<rect rx="6" ry="6" x="-25" y="-25" width="50" height="50" class="key"/>
</g>
<g transform="translate(27, 108)" class="key keypos-12">
<rect rx="6" ry="6" x="-25" y="-25" width="50" height="50" class="key"/>
</g>
<g transform="translate(81, 101)" class="key keypos-13">
<rect rx="6" ry="6" x="-25" y="-25" width="50" height="50" class="key"/>
</g>
<g transform="translate(135, 88)" class="key keypos-14">
<rect rx="6" ry="6" x="-25" y="-25" width="50" height="50" class="key"/>
</g>
<g transform="translate(189, 81)" class="key keypos-15">
<rect rx="6" ry="6" x="-25" y="-25" width="50" height="50" class="key"/>
</g>
<g transform="translate(243, 88)" class="key keypos-16">
<rect rx="6" ry="6" x="-25" y="-25" width="50" height="50" class="key"/>
</g>
<g transform="translate(297, 94)" class="key keypos-17">
<rect rx="6" ry="6" x="-25" y="-25" width="50" height="50" class="key"/>
</g>
<g transform="translate(594, 94)" class="key keypos-18">
<rect rx="6" ry="6" x="-25" y="-25" width="50" height="50" class="key"/>
</g>
<g transform="translate(648, 88)" class="key keypos-19">
<rect rx="6" ry="6" x="-25" y="-25" width="50" height="50" class="key"/>
</g>
<g transform="translate(702, 81)" class="key keypos-20">
<rect rx="6" ry="6" x="-25" y="-25" width="50" height="50" class="key"/>
</g>
<g transform="translate(756, 88)" class="key keypos-21">
<rect rx="6" ry="6" x="-25" y="-25" width="50" height="50" class="key"/>
</g>
<g transform="translate(810, 101)" class="key keypos-22">
<rect rx="6" ry="6" x="-25" y="-25" width="50" height="50" class="key"/>
</g>
<g transform="translate(864, 108)" class="key keypos-23">
<rect rx="6" ry="6" x="-25" y="-25" width="50" height="50" class="key"/>
</g>
<g transform="translate(27, 162)" class="key keypos-24">
<rect rx="6" ry="6" x="-25" y="-25" width="50" height="50" class="key"/>
</g>
<g transform="translate(81, 155)" class="key keypos-25">
<rect rx="6" ry="6" x="-25" y="-25" width="50" height="50" class="key"/>
</g>
<g transform="translate(135, 142)" class="key keypos-26">
<rect rx="6" ry="6" x="-25" y="-25" width="50" height="50" class="key"/>
</g>
<g transform="translate(189, 135)" class="key keypos-27">
<rect rx="6" ry="6" x="-25" y="-25" width="50" height="50" class="key"/>
</g>
<g transform="translate(243, 142)" class="key keypos-28">
<rect rx="6" ry="6" x="-25" y="-25" width="50" height="50" class="key"/>
</g>
<g transform="translate(297, 148)" class="key keypos-29">
<rect rx="6" ry="6" x="-25" y="-25" width="50" height="50" class="key"/>
</g>
<g transform="translate(594, 148)" class="key keypos-30">
<rect rx="6" ry="6" x="-25" y="-25" width="50" height="50" class="key"/>
</g>
<g transform="translate(648, 142)" class="key keypos-31">
<rect rx="6" ry="6" x="-25" y="-25" width="50" height="50" class="key"/>
</g>
<g transform="translate(702, 135)" class="key keypos-32">
<rect rx="6" ry="6" x="-25" y="-25" width="50" height="50" class="key"/>
</g>
<g transform="translate(756, 142)" class="key keypos-33">
<rect rx="6" ry="6" x="-25" y="-25" width="50" height="50" class="key"/>
</g>
<g transform="translate(810, 155)" class="key keypos-34">
<rect rx="6" ry="6" x="-25" y="-25" width="50" height="50" class="key"/>
</g>
<g transform="translate(864, 162)" class="key keypos-35">
<rect rx="6" ry="6" x="-25" y="-25" width="50" height="50" class="key"/>
</g>
<g transform="translate(27, 216)" class="key keypos-36">
<rect rx="6" ry="6" x="-25" y="-25" width="50" height="50" class="key"/>
</g>
<g transform="translate(81, 209)" class="key keypos-37">
<rect rx="6" ry="6" x="-25" y="-25" width="50" height="50" class="key"/>
</g>
<g transform="translate(135, 196)" class="key keypos-38">
<rect rx="6" ry="6" x="-25" y="-25" width="50" height="50" class="key"/>
</g>
<g transform="translate(189, 189)" class="key keypos-39">
<rect rx="6" ry="6" x="-25" y="-25" width="50" height="50" class="key"/>
</g>
<g transform="translate(243, 196)" class="key keypos-40">
<rect rx="6" ry="6" x="-25" y="-25" width="50" height="50" class="key"/>
</g>
<g transform="translate(297, 202)" class="key keypos-41">
<rect rx="6" ry="6" x="-25" y="-25" width="50" height="50" class="key"/>
</g>
<g transform="translate(351, 176)" class="key keypos-42">
<rect rx="6" ry="6" x="-25" y="-25" width="50" height="50" class="key"/>
<text x="0" y="0" class="key tap">BTCLR</text>
</g>
<g transform="translate(540, 176)" class="key keypos-43">
<rect rx="6" ry="6" x="-25" y="-25" width="50" height="50" class="key"/>
</g>
<g transform="translate(594, 202)" class="key keypos-44">
<rect rx="6" ry="6" x="-25" y="-25" width="50" height="50" class="key"/>
</g>
<g transform="translate(648, 196)" class="key keypos-45">
<rect rx="6" ry="6" x="-25" y="-25" width="50" height="50" class="key"/>
</g>
<g transform="translate(702, 189)" class="key keypos-46">
<rect rx="6" ry="6" x="-25" y="-25" width="50" height="50" class="key"/>
</g>
<g transform="translate(756, 196)" class="key keypos-47">
<rect rx="6" ry="6" x="-25" y="-25" width="50" height="50" class="key"/>
</g>
<g transform="translate(810, 209)" class="key keypos-48">
<rect rx="6" ry="6" x="-25" y="-25" width="50" height="50" class="key"/>
</g>
<g transform="translate(864, 216)" class="key keypos-49">
<rect rx="6" ry="6" x="-25" y="-25" width="50" height="50" class="key"/>
</g>
<g transform="translate(162, 250)" class="key keypos-50">
<rect rx="6" ry="6" x="-25" y="-25" width="50" height="50" class="key"/>
</g>
<g transform="translate(216, 251)" class="key keypos-51">
<rect rx="6" ry="6" x="-25" y="-25" width="50" height="50" class="key"/>
</g>
<g transform="translate(270, 256)" class="key keypos-52">
<rect rx="6" ry="6" x="-25" y="-25" width="50" height="50" class="key"/>
</g>
<g transform="translate(338, 256) rotate(30.0)" class="key keypos-53">
<rect rx="6" ry="6" x="-25" y="-38" width="50" height="77" class="key"/>
<text x="0" y="0" class="key tap">BT+</text>
</g>
<g transform="translate(554, 256) rotate(-30.0)" class="key keypos-54">
<rect rx="6" ry="6" x="-25" y="-38" width="50" height="77" class="key"/>
<text x="0" y="0" class="key tap">BT-</text>
</g>
<g transform="translate(621, 256)" class="key keypos-55">
<rect rx="6" ry="6" x="-25" y="-25" width="50" height="50" class="key"/>
</g>
<g transform="translate(675, 251)" class="key keypos-56">
<rect rx="6" ry="6" x="-25" y="-25" width="50" height="50" class="key"/>
</g>
<g transform="translate(729, 251)" class="key keypos-57">
<rect rx="6" ry="6" x="-25" y="-25" width="50" height="50" class="key"/>
</g>
<g class="combo toggle combopos-0">
<path d="M446,40 l-130,0" class="combo"/>
<path d="M446,40 l130,0" class="combo"/>
<rect rx="6" ry="6" x="432" y="30" width="26" height="22" class="combo toggle"/>
<text x="446" y="40" class="combo toggle tap">Gaming</text>
</g>
<g class="combo toggle combopos-1">
<path d="M446,94 l-130,0" class="combo"/>
<path d="M446,94 l130,0" class="combo"/>
<rect rx="6" ry="6" x="432" y="84" width="26" height="22" class="combo toggle"/>
<text x="446" y="94" class="combo toggle tap">BT</text>
</g>
<g class="combo combopos-2">
<rect rx="6" ry="6" x="41" y="40" width="26" height="22" class="combo"/>
<text x="54" y="51" class="combo tap">BOOT</text>
</g>
<g class="combo combopos-3">
<rect rx="6" ry="6" x="824" y="40" width="26" height="22" class="combo"/>
<text x="837" y="51" class="combo tap">BOOT</text>
</g>
</g>
</g>
<text x="11382.0" y="389.0" class="footer">Created with keymap-drawer</text></svg>
